<?xml version="1.0" encoding="UTF-8"?>
<svg width="48px" height="48px" viewBox="0 0 48 48" version="1.1" xmlns="http://www.w3.org/2000/svg" xmlns:xlink="http://www.w3.org/1999/xlink">
    <title>000 Icon/48/icn_seoul_48</title>
    <g id="000-Icon/48/icn_seoul_48" stroke="none" stroke-width="1" fill="none" fillRule="evenodd">
        <rect id="48*48" x="0" y="0" width="48" height="48"></rect>
        <path d="M21,14 L21,15 L22,15 L22,17 L20,17 L20,25 L23,25 L23,26 L24.4746914,26 L27.0228946,31 L29.9998946,31 L30,22 L41,22 L40.999,40 L44,40 L44,42 L4,42 L4,40 L7.355,40 L13.7001261,26 L15,26 L15,25 L18,25 L18,17 L16,17 L16,15 L17,15 L17,14 L21,14 Z M23.249,28 L14.989,28 L9.55,40 L21.9998946,40 L22,31 L24.7788946,31 L23.249,28 Z M30,33 L24,33 L24,40 L30,40 L30,33 Z M39,24 L32,24 L32,40 L39,40 L39,24 Z" id="Shape" fill="#5D5D5D"></path>
        <path d="M7,24 L7,25 L8,25 L8,26 L7,26 L7,27 L6,27 L6,26 L5,26 L5,25 L6,25 L6,24 L7,24 Z M19,6 L20,14 L18,14 L19,6 L19,6 Z M32.5,13 C32.7761424,13 33,13.2238576 33,13.5 C33,13.7761424 32.7761424,14 32.5,14 C32.2238576,14 32,13.7761424 32,13.5 C32,13.2238576 32.2238576,13 32.5,13 Z M38,8 L38,9 L39,9 L39,10 L38,10 L38,11 L37,11 L37,10 L36,10 L36,9 L37,9 L37,8 L38,8 Z M9.5,9 C9.77614237,9 10,9.22385763 10,9.5 C10,9.77614237 9.77614237,10 9.5,10 C9.22385763,10 9,9.77614237 9,9.5 C9,9.22385763 9.22385763,9 9.5,9 Z" id="Shape" fill="#78A353"></path>
    </g>
</svg>