<?xml version="1.0" encoding="UTF-8"?>
<svg width="48px" height="48px" viewBox="0 0 48 48" version="1.1" xmlns="http://www.w3.org/2000/svg" xmlns:xlink="http://www.w3.org/1999/xlink">
    <title>000 Icon/48/icn_packing_shipping_48</title>
    <g id="000-Icon/48/icn_packing_shipping_48" stroke="none" stroke-width="1" fill="none" fillRule="evenodd">
        <rect id="48*48" x="0" y="0" width="48" height="48"></rect>
        <path d="M43,25 L43,27 L36,27 L36,25 L43,25 Z M25.4187618,7.18626653 L27,8 L27,13 L26,14 L12,14 L11,13 L11,8 L12.5812382,7.18626653 L18.999,11.771 L25.4187618,7.18626653 Z M25,9.942 L22.119,12 L25,12 L25,9.942 Z M13,9.943 L13,12 L15.88,12 L13,9.943 Z" id="point" fill="#78A353" fillRule="nonzero"></path>
        <path d="M34,12 L34,19 L31,19 L31,21 L39.3926902,21 L45,26.2067876 L45,36 L41,36 C41,38.209139 39.209139,40 37,40 C34.790861,40 33,38.209139 33,36 L21,36 C21,38.209139 19.209139,40 17,40 C14.790861,40 13,38.209139 13,36 L7,36 L7,19 L4,19 L4,12 L34,12 Z M17,34 C15.9456382,34 15.0818349,34.8158778 15.0054857,35.8507377 L15,36 C15,37.1045695 15.8954305,38 17,38 C18.1045695,38 19,37.1045695 19,36 C19,34.8954305 18.1045695,34 17,34 Z M37,34 C35.9456382,34 35.0818349,34.8158778 35.0054857,35.8507377 L35,36 C35,37.1045695 35.8954305,38 37,38 C38.1045695,38 39,37.1045695 39,36 C39,34.8954305 38.1045695,34 37,34 Z M18,19 L9,19 L9,34 L13.5351985,34 C14.2268344,32.8043432 15.519485,32 17,32 C17.3455978,32 17.6809589,32.0438286 18.0008281,32.1262323 L18,19 Z M29,19 L20,19 L20.0022401,33.3567793 C20.1766804,33.5547696 20.3318458,33.7701546 20.4648015,34 L29,34 L29,19 Z M38.608,23 L31,23 L31,34 L33.5351985,33.9998796 C34.2268344,32.8043432 35.519485,32 37,32 C38.480515,32 39.7731656,32.8043432 40.4648015,33.9998796 L43,34 L43,27.079 L38.608,23 Z M18,14 L6,14 L6,17 L18,17 L18,14 Z M32,14 L20,14 L20,17 L32,17 L32,14 Z" id="Shape" fill="#5D5D5D"></path>
    </g>
</svg>