<?xml version="1.0" encoding="UTF-8"?>
<svg width="48px" height="48px" viewBox="0 0 48 48" version="1.1" xmlns="http://www.w3.org/2000/svg" xmlns:xlink="http://www.w3.org/1999/xlink">
    <title>000 Icon/48/icn_customer_center_48</title>
    <g id="000-Icon/48/icn_customer_center_48" stroke="none" stroke-width="1" fill="none" fillRule="evenodd">
        <rect id="48*48" x="0" y="0" width="48" height="48"></rect>
        <polygon id="point" fill="#78A353" points="27 39 37 39 37 41 27 41"></polygon>
        <path d="M24.0004781,6 L24.3668043,6.00245149 C32.6594638,6.11419852 36.9824242,10.0449147 36.9999465,17.5118207 C40.4953785,18.747362 43,22.0811881 43,26 C43,29.5332868 40.9639377,32.5910258 38.001093,34.0639371 L38,40 C38,40.5522847 37.5522847,41 37,41 L36,41 L36.0009121,34.7767766 C35.4861104,34.8936479 34.9545439,34.9663881 34.4104004,34.9908093 L34,35 L32,35 L32,17 L34,17 C34.3358488,17 34.6674011,17.0183959 34.9937041,17.054235 C34.8233973,11.0296886 31.3808909,8.09847456 24.3605305,8.00244091 L24.0004781,8 L24.0004781,6 Z M24,6 L24,8 C16.7372223,8 13.1799673,10.9275777 13.0060875,17.0540647 C13.3325989,17.0183959 13.6641512,17 14,17 L16,17 L16,35 L14,35 C9.02943725,35 5,30.9705627 5,26 C5,22.0808167 7.50509625,18.7467301 11.0014098,17.511619 C11.0180539,10.0449147 15.3410143,6.11419852 23.6336738,6.00245149 L24,6 Z M14,19 C10.1340068,19 7,22.1340068 7,26 C7,29.8659932 10.1340068,33 14,33 L14,19 Z M34,19 L34,33 C37.8659932,33 41,29.8659932 41,26 C41,22.2145483 37.9952166,19.1309013 34.2406498,19.004059 L34,19 Z" id="Shape" fill="#5D5D5D" fillRule="nonzero"></path>
    </g>
</svg>