<?xml version="1.0" encoding="UTF-8"?>
<svg width="48px" height="48px" viewBox="0 0 48 48" version="1.1" xmlns="http://www.w3.org/2000/svg" xmlns:xlink="http://www.w3.org/1999/xlink">
    <title>000 Icon/48/icn_pricint_48</title>
    <g id="000-Icon/48/icn_pricint_48" stroke="none" stroke-width="1" fill="none" fillRule="evenodd">
        <rect id="48*48" x="0" y="0" width="48" height="48"></rect>
        <path d="M21,6 C29.836556,6 37,13.163444 37,22 C37,25.803387 35.6729208,29.2968181 33.4565476,32.042508 L42.6568542,41.2426407 L41.2426407,42.6568542 L32.1040343,33.5195903 C29.2266682,36.2937937 25.312587,38 21,38 C12.163444,38 5,30.836556 5,22 C5,13.163444 12.163444,6 21,6 Z M21,8 C13.2680135,8 7,14.2680135 7,22 C7,29.7319865 13.2680135,36 21,36 C28.7319865,36 35,29.7319865 35,22 C35,14.2680135 28.7319865,8 21,8 Z M30.4138029,16.0896335 C30.8806715,16.3018465 31.1057127,16.8281872 30.9524999,17.304851 L30.9103665,17.4138029 L25.9103665,28.4138029 C25.5642453,29.1752695 24.511312,29.1894564 24.126526,28.4880768 L24.0715233,28.3713907 L21,20.692 L17.9284767,28.3713907 C17.6178308,29.1480053 16.5666712,29.2107224 16.1499576,28.527829 L16.0896335,28.4138029 L11.0896335,17.4138029 C10.8610965,16.9110214 11.0834155,16.3181706 11.5861971,16.0896335 C12.0530656,15.8774205 12.597596,16.053956 12.8559836,16.482813 L12.9103665,16.5861971 L16.941,25.454 L20.0715233,17.6286093 C20.3908169,16.8303753 21.4821545,16.7923641 21.8749761,17.5145759 L21.9284767,17.6286093 L25.058,25.454 L29.0896335,16.5861971 C29.3181706,16.0834155 29.9110214,15.8610965 30.4138029,16.0896335 Z" id="Combined-Shape" fill="#5D5D5D"></path>
        <path d="M12,22 L30,22 C30.5522847,22 31,22.4477153 31,23 C31,23.5522847 30.5522847,24 30,24 L12,24 C11.4477153,24 11,23.5522847 11,23 C11,22.4477153 11.4477153,22 12,22 Z" id="point" fill="#78A353"></path>
    </g>
</svg>