<?xml version="1.0" encoding="UTF-8"?>
<svg width="48px" height="48px" viewBox="0 0 48 48" version="1.1" xmlns="http://www.w3.org/2000/svg" xmlns:xlink="http://www.w3.org/1999/xlink">
    <title>000 Icon/48/icn_camera_48</title>
    <g id="000-Icon/48/icn_camera_48" stroke="none" stroke-width="1" fill="none" fillRule="evenodd">
        <rect id="48*48" x="0" y="0" width="48" height="48"></rect>
        <path d="M30,8 L30.9486833,8.68377223 L32.72,14 L44,14 L44,40 L4,40 L4,14 L15.279,14 L17.0513167,8.68377223 L18,8 L30,8 Z M42,16 L6,16 L6,38 L42,38 L42,16 Z M24,20 C28.418278,20 32,23.581722 32,28 C32,32.418278 28.418278,36 24,36 C19.581722,36 16,32.418278 16,28 C16,23.581722 19.581722,20 24,20 Z M24,22 C20.6862915,22 18,24.6862915 18,28 C18,31.3137085 20.6862915,34 24,34 C27.3137085,34 30,31.3137085 30,28 C30,24.6862915 27.3137085,22 24,22 Z M29.279,10 L18.72,10 L17.387,14 L30.612,14 L29.279,10 Z" id="Shape" fill="#5D5D5D" fillRule="nonzero"></path>
        <path d="M20,28.5 C20.2761424,28.5 20.5,28.7238576 20.5,29 C20.5,30.7238576 21.2761424,31.5 23,31.5 C23.2761424,31.5 23.5,31.7238576 23.5,32 C23.5,32.2761424 23.2761424,32.5 23,32.5 C20.7238576,32.5 19.5,31.2761424 19.5,29 C19.5,28.7238576 19.7238576,28.5 20,28.5 Z M39,18 L39,20 L35,20 L35,18 L39,18 Z M11,11 C11.5522847,11 12,11.4477153 12,12 L12,14 L8,14 L8,12 C8,11.4477153 8.44771525,11 9,11 L11,11 Z" id="point" fill="#78A353"></path>
    </g>
</svg>