<?xml version="1.0" encoding="UTF-8"?>
<svg width="48px" height="48px" viewBox="0 0 48 48" version="1.1" xmlns="http://www.w3.org/2000/svg" xmlns:xlink="http://www.w3.org/1999/xlink">
    <title>000 Icon/48/icn_calculate_48</title>
    <g id="000-Icon/48/icn_calculate_48" stroke="none" stroke-width="1" fill="none" fillRule="evenodd">
        <rect id="48*48" x="0" y="0" width="48" height="48"></rect>
        <path d="M46,14 L46,38 L5,38 L5,36 L44,36 L44,14 L46,14 Z M43,11 L43,35 L3,35 L3,11 L43,11 Z M41,13 L5,13 L5,33 L41,33 L41,13 Z M37,15 C37,16.1045695 37.8954305,17 39,17 L39,29 C37.9456382,29 37.0818349,29.8158778 37.0054857,30.8507377 L37,31 L9,31 C9,29.8954305 8.1045695,29 7,29 L7,17 C8.0543618,17 8.91816512,16.1841222 8.99451426,15.1492623 L9,15 L37,15 Z M35.5357707,17.0011092 L10.4642293,17.0011092 C10.1131899,17.6075029 9.60750289,18.1131899 9.00110922,18.4642293 L9.00110922,27.5357707 C9.60783246,27.8870009 10.1137396,28.3930468 10.4648015,28.9998796 L35.5351985,28.9998796 C35.8864511,28.3927172 36.3927172,27.8864511 36.9998796,27.5351985 L36.9998796,18.4648015 C36.3930468,18.1137396 35.8870009,17.6078325 35.5357707,17.0011092 Z" id="Shape" fill="#5D5D5D"></path>
        <path d="M23,20 C24.6568542,20 26,21.3431458 26,23 C26,24.6568542 24.6568542,26 23,26 C21.3431458,26 20,24.6568542 20,23 C20,21.3431458 21.3431458,20 23,20 Z M32,22 C32.5522847,22 33,22.4477153 33,23 C33,23.5522847 32.5522847,24 32,24 C31.4477153,24 31,23.5522847 31,23 C31,22.4477153 31.4477153,22 32,22 Z M13,22 C13.5522847,22 14,22.4477153 14,23 C14,23.5522847 13.5522847,24 13,24 C12.4477153,24 12,23.5522847 12,23 C12,22.4477153 12.4477153,22 13,22 Z" id="point" fill="#78A353"></path>
    </g>
</svg>